<svg width="369" height="145" viewBox="0 0 369 145" fill="none" xmlns="http://www.w3.org/2000/svg">
<g filter="url(#filter0_d_34_2398)">
<circle cx="185" cy="64.5" r="40" fill="white"/>
</g>
<g clip-path="url(#clip0_34_2398)">
<path d="M197.27 63.3957H206.704C206.851 63.3957 206.999 63.2486 206.999 63.1014C206.336 53.2419 199.186 45.0747 189.753 43.0145C189.532 42.9409 189.31 43.2352 189.532 43.4559C193.954 48.3857 196.754 55.4492 197.049 63.175C196.975 63.3221 197.123 63.3957 197.27 63.3957Z" fill="#091E42"/>
<path d="M185.184 42.5C185.11 42.5 185.037 42.5 184.963 42.5C184.889 42.5 184.816 42.5 184.742 42.5C179.067 46.8411 175.529 54.5669 175.161 63.102C175.161 63.2492 175.308 63.3963 175.455 63.3963H194.471C194.618 63.3963 194.765 63.2492 194.765 63.102C194.471 54.5669 190.859 46.8411 185.184 42.5Z" fill="#36B37E"/>
<path d="M175.455 65.6035C175.308 65.6035 175.161 65.7507 175.161 65.8978C175.529 74.5065 179.067 82.1587 184.742 86.4998C184.816 86.4998 184.889 86.4998 184.963 86.4998C185.037 86.4998 185.11 86.4998 185.184 86.4998C190.859 82.1587 194.397 74.4329 194.765 65.8978C194.765 65.7507 194.618 65.6035 194.471 65.6035H175.455Z" fill="#091E42"/>
<path d="M196.975 65.8243C196.681 73.55 193.954 80.6136 189.532 85.5433C189.384 85.7641 189.532 86.0584 189.753 85.9848C199.186 83.9246 206.409 75.7574 206.999 65.8978C206.999 65.7507 206.851 65.6035 206.704 65.6035H197.27C197.123 65.6035 196.975 65.7507 196.975 65.8243Z" fill="#36B37E"/>
<path d="M172.728 65.6035H163.294C163.147 65.6035 163 65.7507 163 65.8978C163.589 75.7574 170.812 83.9246 180.246 85.9848C180.467 86.0584 180.688 85.7641 180.467 85.5433C175.971 80.6136 173.244 73.55 172.949 65.8243C173.023 65.7507 172.876 65.6035 172.728 65.6035Z" fill="#36B37E"/>
<path d="M173.023 63.175C173.318 55.4492 176.045 48.3857 180.467 43.4559C180.614 43.2352 180.467 42.9409 180.246 43.0145C170.812 45.0747 163.589 53.2419 163 63.1014C163 63.2486 163.147 63.3957 163.294 63.3957H172.728C172.876 63.3957 173.023 63.3221 173.023 63.175Z" fill="#091E42"/>
</g>
<defs>
<filter id="filter0_d_34_2398" x="121" y="16.5" width="128" height="128" filterUnits="userSpaceOnUse" color-interpolation-filters="sRGB">
<feFlood flood-opacity="0" result="BackgroundImageFix"/>
<feColorMatrix in="SourceAlpha" type="matrix" values="0 0 0 0 0 0 0 0 0 0 0 0 0 0 0 0 0 0 127 0" result="hardAlpha"/>
<feOffset dy="16"/>
<feGaussianBlur stdDeviation="12"/>
<feColorMatrix type="matrix" values="0 0 0 0 0.145573 0 0 0 0 0.185183 0 0 0 0 0.5375 0 0 0 0.08 0"/>
<feBlend mode="normal" in2="BackgroundImageFix" result="effect1_dropShadow_34_2398"/>
<feBlend mode="normal" in="SourceGraphic" in2="effect1_dropShadow_34_2398" result="shape"/>
</filter>
<clipPath id="clip0_34_2398">
<rect width="44" height="44" fill="white" transform="translate(163 42.5)"/>
</clipPath>
</defs>
</svg>
